<svg width="148" height="32" viewBox="0 0 332 72" fill="none" xmlns="http://www.w3.org/2000/svg">
    <path d="M119.81 17.2695V49.8395H114.59V17.2695H119.81Z" fill="white"/>
    <path d="M213.68 36.3796V49.8396H208.47V37.2496C208.508 36.544 208.404 35.838 208.162 35.174C207.921 34.5099 207.547 33.9016 207.065 33.3856C206.582 32.8695 206 32.4565 205.353 32.1712C204.707 31.8859 204.009 31.7343 203.303 31.7256C202.596 31.7168 201.895 31.851 201.242 32.1201C200.589 32.3893 199.997 32.7878 199.501 33.2917C199.006 33.7955 198.617 34.3944 198.359 35.0522C198.102 35.7101 197.979 36.4133 198 37.1196V49.8396H192.79V37.2496C192.843 36.5383 192.745 35.824 192.502 35.1534C192.259 34.4828 191.877 33.871 191.382 33.3583C190.886 32.8456 190.287 32.4434 189.625 32.1783C188.963 31.9131 188.253 31.7908 187.54 31.8196C186.836 31.8257 186.139 31.9733 185.493 32.2537C184.847 32.5341 184.263 32.9414 183.777 33.4516C183.291 33.9618 182.913 34.5645 182.664 35.2237C182.416 35.883 182.302 36.5856 182.33 37.2896V49.8396H177.12V27.4396H182.33V29.9996C183.154 29.0411 184.179 28.2756 185.331 27.7571C186.484 27.2387 187.736 26.9801 189 26.9996C190.465 26.9659 191.914 27.2975 193.218 27.9645C194.523 28.6314 195.64 29.6126 196.47 30.8196C197.38 29.6183 198.558 28.6471 199.911 27.9837C201.264 27.3203 202.753 26.9832 204.26 26.9996C205.507 26.9492 206.751 27.157 207.914 27.61C209.077 28.063 210.134 28.7515 211.019 29.6322C211.903 30.5129 212.596 31.5668 213.054 32.7279C213.512 33.889 213.725 35.1322 213.68 36.3796V36.3796Z" fill="white"/>
    <path d="M230.78 27.0003V32.5203C225.78 32.1703 223.23 34.7803 223.23 38.2103V49.8403H218V27.4403H223.21V30.6103C224.115 29.4739 225.267 28.5584 226.579 27.9329C227.89 27.3075 229.327 26.9886 230.78 27.0003V27.0003Z" fill="white"/>
    <path d="M254.41 40.5095H236.78C237.113 42.0127 237.965 43.3503 239.187 44.2868C240.409 45.2234 241.922 45.6989 243.46 45.6295C244.736 45.679 246.001 45.3675 247.108 44.7307C248.216 44.0939 249.121 43.1577 249.72 42.0295L254.06 43.8495C253.125 45.7928 251.656 47.4297 249.825 48.5684C247.994 49.7072 245.876 50.3007 243.72 50.2795C236.6 50.2795 231.72 45.1095 231.72 38.6395C231.686 37.1076 231.962 35.5846 232.53 34.1617C233.099 32.7387 233.949 31.4452 235.029 30.3584C236.109 29.2717 237.398 28.414 238.817 27.8369C240.237 27.2597 241.758 26.9749 243.29 26.9995C249.72 26.9995 255.71 32.3395 254.41 40.5095ZM236.82 36.5595H249.72C249.368 35.1558 248.556 33.9102 247.415 33.0206C246.273 32.1309 244.867 31.6483 243.42 31.6495C241.928 31.6071 240.466 32.0686 239.268 32.9594C238.071 33.8502 237.208 35.1184 236.82 36.5595V36.5595Z" fill="white"/>
    <path d="M280.81 27.4402V49.8402H275.59V46.8402C274.677 47.9401 273.528 48.8198 272.227 49.4136C270.927 50.0075 269.509 50.3003 268.08 50.2702C261.83 50.2702 257.18 45.4902 257.18 38.6302C257.18 31.7702 261.83 27.0002 268.08 27.0002C269.509 26.97 270.927 27.2628 272.227 27.8567C273.528 28.4506 274.677 29.3302 275.59 30.4302V27.4302L280.81 27.4402ZM275.59 38.6402C275.626 37.7496 275.483 36.8608 275.168 36.027C274.853 35.1932 274.373 34.4314 273.757 33.7873C273.141 33.1432 272.401 32.6299 271.582 32.2782C270.763 31.9264 269.882 31.7435 268.99 31.7402C265.17 31.7402 262.48 34.8202 262.48 38.6402C262.48 42.4602 265.17 45.5502 268.99 45.5502C269.882 45.5455 270.764 45.3613 271.583 45.0085C272.402 44.6556 273.141 44.1414 273.757 43.4965C274.373 42.8516 274.853 42.0892 275.168 41.2548C275.483 40.4205 275.626 39.5312 275.59 38.6402V38.6402Z" fill="white"/>
    <path d="M284.45 38.6401C284.461 35.9468 285.403 33.3402 287.116 31.2618C288.829 29.1833 291.207 27.7606 293.849 27.2346C296.49 26.7087 299.232 27.1118 301.611 28.3757C303.989 29.6396 305.858 31.6866 306.9 34.1701L302.08 35.8201C301.574 34.6546 300.744 33.6585 299.69 32.9496C298.636 32.2407 297.4 31.8488 296.13 31.8201C292.22 31.8201 289.66 34.8201 289.66 38.6401C289.586 40.1903 290.07 41.7157 291.023 42.9403C291.977 44.165 293.337 45.0082 294.857 45.3174C296.378 45.6267 297.959 45.3816 299.315 44.6264C300.671 43.8713 301.712 42.6559 302.25 41.2001L306.94 43.0001C306.082 45.1883 304.572 47.06 302.616 48.3621C300.659 49.6642 298.35 50.3337 296 50.2801C294.467 50.3091 292.945 50.0271 291.525 49.4512C290.105 48.8753 288.816 48.0175 287.736 46.9296C286.657 45.8416 285.809 44.5462 285.244 43.1214C284.679 41.6967 284.409 40.1722 284.45 38.6401V38.6401Z" fill="white"/>
    <path d="M331.82 36.8595V49.8595H326.61V37.6795C326.658 36.9085 326.544 36.136 326.275 35.4119C326.006 34.6878 325.588 34.0282 325.048 33.4759C324.508 32.9236 323.858 32.4907 323.14 32.2054C322.422 31.9201 321.652 31.7886 320.88 31.8195C320.099 31.806 319.323 31.9537 318.601 32.2533C317.879 32.5529 317.226 32.9981 316.684 33.5611C316.141 34.124 315.721 34.7927 315.448 35.5254C315.176 36.2581 315.057 37.039 315.1 37.8195V49.8395H309.89V17.2695H315.1V30.3495C315.975 29.2977 317.071 28.452 318.311 27.8729C319.55 27.2937 320.902 26.9955 322.27 26.9995C327.44 26.9995 331.82 30.6495 331.82 36.8595Z" fill="white"/>
    <path d="M92.2798 28.9995V17.2695H87.0698V49.8395H92.2798V48.2495C94.1888 49.4524 96.4036 50.0808 98.6598 50.0595C100.161 50.0648 101.65 49.7901 103.05 49.2495C105.088 48.3178 106.815 46.8188 108.024 44.9318C109.233 43.0448 109.873 40.8496 109.868 38.6084C109.863 36.3673 109.212 34.1751 107.994 32.2938C106.776 30.4125 105.042 28.9217 103 27.9995C101.608 27.468 100.13 27.1968 98.6398 27.1995C96.3905 27.1729 94.1816 27.7981 92.2798 28.9995V28.9995ZM98.0498 45.4295C96.8652 45.4459 95.6992 45.1341 94.6808 44.5287C93.6625 43.9233 92.8315 43.048 92.2798 41.9995C91.7349 40.9598 91.4503 39.8034 91.4503 38.6295C91.4503 37.4557 91.7349 36.2993 92.2798 35.2595C92.8287 34.2074 93.6586 33.3279 94.6771 32.7189C95.6957 32.1099 96.8632 31.7951 98.0498 31.8095C98.9346 31.8118 99.8099 31.9914 100.624 32.3377C101.438 32.684 102.175 33.19 102.79 33.8258C103.405 34.4616 103.887 35.2143 104.206 36.0394C104.526 36.8644 104.677 37.7452 104.65 38.6295C104.678 39.5147 104.528 40.3965 104.209 41.2228C103.89 42.049 103.409 42.8029 102.794 43.4398C102.178 44.0766 101.441 44.5835 100.626 44.9305C99.8116 45.2774 98.9355 45.4573 98.0498 45.4595V45.4295Z" fill="white"/>
    <path d="M123.67 38.6402C123.636 36.2974 124.3 33.9976 125.577 32.0332C126.854 30.0688 128.687 28.5287 130.841 27.6087C132.996 26.6887 135.376 26.4304 137.678 26.8667C139.98 27.3031 142.1 28.4142 143.769 30.0589C145.438 31.7036 146.579 33.8075 147.049 36.1029C147.519 38.3983 147.295 40.7816 146.406 42.9495C145.518 45.1174 144.004 46.972 142.059 48.2774C140.113 49.5828 137.823 50.2799 135.48 50.2802C133.931 50.3277 132.388 50.0604 130.944 49.4945C129.501 48.9285 128.188 48.0757 127.084 46.9875C125.98 45.8994 125.108 44.5986 124.521 43.1638C123.935 41.729 123.645 40.1901 123.67 38.6402V38.6402ZM135.48 45.4602C136.365 45.4579 137.24 45.2783 138.054 44.932C138.868 44.5857 139.605 44.0797 140.22 43.4439C140.835 42.8081 141.317 42.0554 141.636 41.2303C141.956 40.4053 142.107 39.5245 142.08 38.6402C142.08 37.7734 141.909 36.9152 141.578 36.1145C141.246 35.3137 140.76 34.5861 140.147 33.9733C139.534 33.3604 138.806 32.8742 138.006 32.5426C137.205 32.2109 136.347 32.0402 135.48 32.0402C134.613 32.0402 133.755 32.2109 132.954 32.5426C132.153 32.8742 131.426 33.3604 130.813 33.9733C130.2 34.5861 129.714 35.3137 129.382 36.1145C129.051 36.9152 128.88 37.7734 128.88 38.6402C128.849 39.5256 128.997 40.4081 129.315 41.2351C129.633 42.062 130.114 42.8164 130.73 43.453C131.346 44.0897 132.085 44.5955 132.901 44.9404C133.717 45.2853 134.594 45.462 135.48 45.4602V45.4602Z" fill="white"/>
    <path d="M149.89 38.6397C149.854 36.2945 150.517 33.9918 151.794 32.0245C153.071 30.0572 154.904 28.5142 157.061 27.5919C159.217 26.6696 161.599 26.4097 163.904 26.8453C166.208 27.2808 168.331 28.3921 170.002 30.0378C171.673 31.6834 172.817 33.789 173.288 36.0867C173.759 38.3843 173.536 40.7701 172.646 42.9404C171.757 45.1107 170.243 46.9675 168.295 48.2744C166.348 49.5814 164.055 50.2794 161.71 50.2797C160.16 50.3272 158.617 50.0599 157.173 49.4941C155.729 48.9282 154.415 48.0755 153.311 46.9875C152.206 45.8995 151.333 44.5988 150.745 43.164C150.157 41.7292 149.866 40.1901 149.89 38.6397V38.6397ZM161.71 45.4597C162.595 45.4574 163.47 45.2778 164.284 44.9315C165.098 44.5852 165.835 44.0792 166.45 43.4434C167.065 42.8076 167.547 42.0549 167.867 41.2298C168.186 40.4047 168.337 39.524 168.31 38.6397C168.31 37.7729 168.139 36.9147 167.808 36.1139C167.476 35.3132 166.99 34.5856 166.377 33.9727C165.764 33.3599 165.037 32.8737 164.236 32.5421C163.435 32.2104 162.577 32.0397 161.71 32.0397C160.843 32.0397 159.985 32.2104 159.184 32.5421C158.384 32.8737 157.656 33.3599 157.043 33.9727C156.43 34.5856 155.944 35.3132 155.612 36.1139C155.281 36.9147 155.11 37.7729 155.11 38.6397C155.079 39.5251 155.227 40.4076 155.545 41.2346C155.863 42.0615 156.344 42.8158 156.96 43.4525C157.577 44.0891 158.315 44.595 159.131 44.9399C159.947 45.2848 160.824 45.4615 161.71 45.4597V45.4597Z" fill="white"/>
    <path d="M35.94 71.88C55.7891 71.88 71.88 55.7891 71.88 35.94C71.88 16.0909 55.7891 0 35.94 0C16.0909 0 0 16.0909 0 35.94C0 55.7891 16.0909 71.88 35.94 71.88Z" fill="#FFD500"/>
    <path d="M43.22 28.4702L41.46 33.0002C42.3966 33.6095 43.1631 34.4466 43.6878 35.433C44.2126 36.4195 44.4782 37.523 44.46 38.6402C44.46 40.3323 43.7878 41.955 42.5914 43.1515C41.3949 44.348 39.7721 45.0202 38.08 45.0202C36.3879 45.0202 34.7652 44.348 33.5687 43.1515C32.3722 41.955 31.7 40.3323 31.7 38.6402C31.6625 37.8007 31.7917 36.9622 32.0802 36.173C32.3686 35.3837 32.8106 34.6595 33.3806 34.0421C33.9506 33.4247 34.6373 32.9264 35.401 32.5759C36.1647 32.2254 36.9903 32.0297 37.83 32.0002L39.48 27.4002C37.9037 27.1432 36.2904 27.2325 34.7521 27.662C33.2139 28.0914 31.7875 28.8507 30.5723 29.887C29.3571 30.9233 28.3821 32.2118 27.7151 33.663C27.0482 35.1141 26.7052 36.6931 26.71 38.2902V49.8402H31.71V48.0002C33.6165 49.2097 35.8323 49.8418 38.09 49.8202C40.6473 49.8553 43.1403 49.0189 45.1589 47.4485C47.1775 45.8781 48.6013 43.6673 49.1961 41.1799C49.7909 38.6925 49.5212 36.0768 48.4313 33.7631C47.3415 31.4494 45.4966 29.5757 43.2 28.4502L43.22 28.4702Z" fill="#002840"/>
    <path d="M26.6899 27.9195C28.1165 26.4656 29.8155 25.3068 31.6899 24.5095V17.2695H26.6899V27.9195Z" fill="#002840"/>
</svg>
