<svg width="32" height="32" viewBox="0 0 32 32" fill="none" xmlns="http://www.w3.org/2000/svg">
    <path d="M16 32C24.8366 32 32 24.8366 32 16C32 7.16344 24.8366 0 16 0C7.16344 0 0 7.16344 0 16C0 24.8366 7.16344 32 16 32Z" fill="#FFD500"/>
    <path d="M19.2089 12.6535L18.4267 14.6669C18.8429 14.9377 19.1836 15.3097 19.4168 15.7481C19.65 16.1866 19.7681 16.677 19.76 17.1735C19.76 17.9256 19.4613 18.6468 18.9295 19.1786C18.3977 19.7103 17.6765 20.0091 16.9245 20.0091C16.1724 20.0091 15.4512 19.7103 14.9194 19.1786C14.3876 18.6468 14.0889 17.9256 14.0889 17.1735C14.0722 16.8004 14.1296 16.4277 14.2578 16.077C14.3861 15.7262 14.5825 15.4043 14.8358 15.1299C15.0891 14.8555 15.3943 14.634 15.7338 14.4783C16.0732 14.3225 16.4401 14.2355 16.8133 14.2224L17.5467 12.178C16.8461 12.0637 16.1291 12.1035 15.4454 12.2943C14.7617 12.4852 14.1278 12.8226 13.5877 13.2832C13.0476 13.7438 12.6143 14.3165 12.3178 14.9614C12.0214 15.6064 11.869 16.3082 11.8711 17.018V22.1513H14.0933V21.3335C14.9407 21.8711 15.9255 22.152 16.9289 22.1424C18.0655 22.158 19.1735 21.7863 20.0706 21.0883C20.9678 20.3904 21.6006 19.4078 21.8649 18.3023C22.1293 17.1968 22.0094 16.0342 21.525 15.0059C21.0407 13.9776 20.2207 13.1448 19.2 12.6446L19.2089 12.6535Z" fill="#002840"/>
    <path d="M11.8623 12.4091C12.4963 11.7629 13.2515 11.2479 14.0845 10.8936V7.67578H11.8623V12.4091Z" fill="#002840"/>
</svg>
